Coordinates
version=1
nRows=9
nColumns=63
inDegrees=yes

Units are S.I. units (second, meters, Newtons, ...)
If the header above contains a line with 'inDegrees', this indicates whether rotational values are in degrees (yes) or radians (no).

endheader
time	pelvis_tilt	pelvis_list	pelvis_rotation	pelvis_tx	pelvis_ty	pelvis_tz	hip_flexion_r	hip_adduction_r	hip_rotation_r	knee_angle_r	knee_angle_r_beta	ankle_angle_r	subtalar_angle_r	mtp_angle_r	hip_flexion_l	hip_adduction_l	hip_rotation_l	knee_angle_l	knee_angle_l_beta	ankle_angle_l	subtalar_angle_l	mtp_angle_l	L5_S1_Flex_Ext	L5_S1_Lat_Bending	L5_S1_axial_rotation	L4_L5_Flex_Ext	L4_L5_Lat_Bending	L4_L5_axial_rotation	L3_L4_Flex_Ext	L3_L4_Lat_Bending	L3_L4_axial_rotation	L2_L3_Flex_Ext	L2_L3_Lat_Bending	L2_L3_axial_rotation	L1_L2_Flex_Ext	L1_L2_Lat_Bending	L1_L2_axial_rotation	L1_T12_Flex_Ext	L1_T12_Lat_Bending	L1_T12_axial_rotation	Abs_r3	Abs_r2	Abs_r1	Abs_t1	Abs_t2	neck_flexion	neck_bending	neck_rotation	arm_flex_r	arm_add_r	arm_rot_r	elbow_flex_r	pro_sup_r	wrist_flex_r	wrist_dev_r	arm_flex_l	arm_add_l	arm_rot_l	elbow_flex_l	pro_sup_l	wrist_flex_l	wrist_dev_l
0.766667	-1.991308	-8.627522	81.953412	0.458896	0.866361	0.939690	8.338946	0.365952	10.462991	18.690124	0.326204	28.497531	-5.380290	0.000000	2.294337	-0.422413	-21.487436	8.917551	0.155641	33.876732	11.553297	0.000000	-0.074859	-0.091388	3.688371	-0.139021	-0.121547	3.918894	-0.122986	-0.222202	3.918894	-0.085556	-0.222202	3.227325	-0.069514	-0.186359	2.996802	-0.042774	-0.141561	2.766278	-0.534710	-1.033804	20.513614	0.000000	0.000000	25.243700	-1.360928	0.160106	-19.364791	-12.084454	1.408330	70.782504	88.624080	-3.862773	4.269002	11.022492	-22.009388	32.642007	106.225233	80.303513	9.464511	19.503953
0.783333	-1.881163	-8.473763	82.429838	0.456415	0.867467	0.938827	8.387752	0.520268	10.531659	19.078067	0.332975	27.800093	-7.165592	0.000000	2.249888	-0.403761	-20.551304	9.071104	0.158321	33.619042	11.207968	0.000000	-0.092812	-0.050937	3.564207	-0.172360	-0.067746	3.786970	-0.152480	-0.123848	3.786970	-0.106074	-0.123848	3.118681	-0.086185	-0.103870	2.895918	-0.053032	-0.078901	2.673155	-0.662943	-0.576206	19.823049	0.000000	0.000000	24.717032	-1.797759	0.580574	-21.865307	-13.543982	-0.239639	70.111431	88.381111	-5.573488	3.626194	13.058852	-22.560260	30.520116	111.345522	80.633519	7.976098	20.342869
0.800000	-1.719701	-8.354630	83.106621	0.453877	0.868904	0.937751	8.380246	0.678257	10.265124	19.293647	0.336738	27.094833	-8.596076	0.000000	2.187546	-0.429230	-19.467120	9.111260	0.159021	33.226457	10.933291	0.000000	-0.104157	-0.008794	3.447849	-0.193430	-0.011695	3.663340	-0.171119	-0.021381	3.663340	-0.119041	-0.021381	3.016868	-0.096720	-0.017932	2.801378	-0.059515	-0.013621	2.585887	-0.743981	-0.099474	19.175903	0.000000	0.000000	24.275245	-2.319177	0.693020	-24.720774	-15.186326	-1.508342	69.678510	88.342698	-7.410273	2.613867	15.683139	-22.962732	28.704859	116.131194	80.612146	6.069703	20.915272
0.816667	-1.572207	-8.281098	83.930575	0.451449	0.870646	0.936573	8.339640	0.765974	9.601920	19.357883	0.337859	26.445899	-9.496948	0.000000	2.122814	-0.439741	-18.248260	9.046747	0.157896	32.669942	10.663177	0.000000	-0.111686	0.025339	3.338059	-0.207413	0.033700	3.546688	-0.183490	0.061608	3.546688	-0.127646	0.061608	2.920802	-0.103712	0.051671	2.712173	-0.063818	0.039250	2.503544	-0.797765	0.286636	18.565282	0.000000	0.000000	23.958007	-2.812177	0.527214	-27.882617	-16.982016	-2.361794	69.647230	88.267322	-9.220510	1.420609	18.824370	-23.262311	27.129477	120.479590	80.250764	3.855601	21.358026
0.833333	-1.385385	-8.266062	84.845030	0.449189	0.872626	0.935359	8.292340	0.862833	8.755554	19.283230	0.336556	25.767649	-10.136122	0.000000	2.073142	-0.506998	-17.171182	8.899272	0.155322	32.040648	10.678783	0.000000	-0.112341	0.058497	3.253617	-0.208628	0.077802	3.456968	-0.184565	0.142231	3.456968	-0.128394	0.142231	2.846915	-0.104320	0.119288	2.643564	-0.064192	0.090613	2.440213	-0.802439	0.661735	18.095643	0.000000	0.000000	23.777270	-3.323894	0.068226	-31.406476	-18.828313	-2.969716	70.118490	88.326790	-10.988250	-0.071182	22.373645	-23.366596	25.889254	124.192586	79.629043	1.532927	21.370586
0.850000	-1.199707	-8.305034	85.804984	0.447170	0.874796	0.934136	8.247740	0.915898	7.656284	19.102642	0.333404	25.123161	-10.344575	0.000000	2.029642	-0.587522	-16.210823	8.661475	0.151171	31.332326	10.869730	0.000000	-0.108479	0.085241	3.188348	-0.201456	0.113371	3.387619	-0.178220	0.207255	3.387619	-0.123981	0.207255	2.789804	-0.100734	0.173824	2.590533	-0.061985	0.132039	2.391261	-0.774855	0.964265	17.732634	0.000000	0.000000	23.743773	-3.735673	-0.596601	-35.190396	-20.694068	-3.266148	71.149258	88.400381	-12.980917	-1.807789	26.155443	-23.282006	24.888671	127.251383	79.067697	-0.807860	21.073602
0.866667	-0.995441	-8.404640	86.768845	0.445467	0.877078	0.932941	8.219330	0.978632	6.529204	18.826673	0.328587	24.414587	-10.444838	0.000000	2.011022	-0.710673	-15.396319	8.366266	0.146019	30.593975	11.215067	0.000000	-0.099035	0.107216	3.144521	-0.183918	0.142597	3.341053	-0.162705	0.260684	3.341053	-0.113187	0.260684	2.751456	-0.091964	0.218634	2.554923	-0.056589	0.166077	2.358391	-0.707397	1.212845	17.488881	0.000000	0.000000	23.852974	-4.035584	-1.452989	-39.178401	-22.481450	-3.393032	72.757637	88.481380	-14.965358	-3.683357	29.996336	-22.965805	24.034775	129.628078	79.062665	-2.845043	20.419538
0.883333	-0.782939	-8.555812	87.680511	0.444155	0.879396	0.931778	8.209483	1.049085	5.442007	18.476593	0.322477	23.636296	-10.475688	0.000000	2.013587	-0.868151	-14.752220	8.035787	0.140251	29.860287	11.671719	0.000000	-0.085610	0.122693	3.130690	-0.158987	0.163181	3.326358	-0.140649	0.298315	3.326358	-0.097844	0.298315	2.739354	-0.079498	0.250195	2.543686	-0.048918	0.190051	2.348018	-0.611505	1.387924	17.411959	0.000000	0.000000	24.094952	-4.258661	-2.547683	-43.264928	-24.100608	-3.461313	74.882413	88.576680	-16.793302	-5.582757	33.767486	-22.413357	23.354815	131.365609	79.773518	-4.545147	19.408697
0.900000	-0.563633	-8.744121	88.519736	0.443273	0.881677	0.930649	8.213489	1.123123	4.373320	18.076658	0.315497	22.825155	-10.385008	0.000000	2.037118	-1.065331	-14.306738	7.708432	0.134538	29.161614	12.240437	0.000000	-0.070301	0.131665	3.150056	-0.130556	0.175115	3.346935	-0.115498	0.320130	3.346935	-0.080347	0.320130	2.756299	-0.065282	0.268491	2.559421	-0.040170	0.203949	2.362542	-0.502154	1.489421	17.519667	0.000000	0.000000	24.448269	-4.430706	-3.879849	-47.313986	-25.461271	-3.625939	77.383233	88.674487	-18.216785	-7.362030	37.361854	-21.635199	22.896329	132.487808	80.901672	-5.892318	18.068579
